<svg id="Layer_1" data-name="Layer 1" xmlns="http://www.w3.org/2000/svg" width="175" height="62" viewBox="0 0 175 62">
  <path d="M153.19,61c-9.51,0-17-2.85-22.49-8.62C125.46,47,122.79,40,122.79,31.49a28.56,28.56,0,0,1,9-21.51c6.31-6,14.49-9,24.53-9,6.22,0,11.38,1,15.38,3l-.27,11.74a28.29,28.29,0,0,0-14.49-3.91c-6.49,0-11.46,2-14.84,5.86-2.93,3.29-4.45,7.56-4.45,12.8A19.33,19.33,0,0,0,142.52,44c3.29,3.65,7.65,5.43,13.07,5.43a30.39,30.39,0,0,0,14.75-4L174,54.78A38.56,38.56,0,0,1,153.19,61" fill="#fff"/>
  <path d="M42.26,40.8v8.38a21.64,21.64,0,0,1-7.92,1.15,17.17,17.17,0,0,1-13.6-6,20.32,20.32,0,0,1-4.88-13.78c0-5.33,1.51-9.6,4.62-12.89,3.64-3.91,9.06-5.86,16.44-5.86a34.08,34.08,0,0,1,15.65,4l.26-12A59.39,59.39,0,0,0,34.88,1C24.83,1,16.74,3.94,10.43,9.8A28,28,0,0,0,1,31.4c0,8.44,2.58,15.47,7.82,21,5.43,5.77,12.8,8.62,22,8.62a52.86,52.86,0,0,0,25.07-6V29.8h-22l.66,4.14,4.61,1.9c1.9.8,3.12,1.6,3.12,5Z" fill="#fff"/>
  <path d="M90.29,49.44A18.16,18.16,0,0,1,72.14,31.28V13.13H90.29a18.16,18.16,0,0,1,0,36.32m0-47.7H60.76V31.29A29.54,29.54,0,1,0,90.29,1.74" fill="#fff"/>
</svg>
